<?xml version="1.0" standalone="no"?>
<!DOCTYPE svg PUBLIC "-//W3C//DTD SVG 20010904//EN"
 "http://www.w3.org/TR/2001/REC-SVG-20010904/DTD/svg10.dtd">
<svg version="1.0" xmlns="http://www.w3.org/2000/svg"
 width="200.000000pt" height="200.000000pt" viewBox="0 0 200.000000 200.000000"
 preserveAspectRatio="xMidYMid meet">
<metadata>
Created by potrace 1.11, written by Peter Selinger 2001-2013
</metadata>
<g transform="translate(0.000000,200.000000) scale(0.100000,-0.100000)"
fill="#000000" stroke="none">
<path d="M877 1944 c-1 -1 -18 -5 -37 -8 -19 -3 -50 -10 -68 -15 -18 -5 -33
-9 -35 -9 -7 3 -92 -30 -150 -58 -197 -98 -346 -247 -442 -442 -212 -435 -53
-975 360 -1220 169 -101 292 -136 480 -137 181 0 273 18 410 84 120 57 188
104 273 189 107 107 191 242 236 378 67 206 57 462 -27 659 -126 297 -390 508
-712 570 -56 11 -278 18 -288 9z"/>
</g>
</svg>
